# xmcd CD database file
#
# Track frame offsets:
#	150
#	6056
#	28998
#	54451
#	80232
#	106554
#	148606
#	170553
#	200729
#	219292
#	245453
#	269466
#
# Disc length: 3918 seconds
#
# Revision: 4
# Processed by: cddbd v1.5PL3 Copyright (c) Steve Scherf et al.
# Submitted via: CDex 1.51
#
DISCID=a90f4c0c
DTITLE=TMN - TMN RED (TAKASHI UTSUNOMIYA PRESENTS)
DYEAR=1994
DGENRE=Rock
TTITLE0=GIVE YOUR BEAT
TTITLE1=KISS YOU
TTITLE2=COME ON LET'S DANCE
TTITLE3=DON'T LET ME CRY
TTITLE4=PASSENGER
TTITLE5=RHYTHM RED BEAT BLACK version2.0
TTITLE6=SPANISH BLUE
TTITLE7=GET WILD '89
TTITLE8=OPEN YOUR HEART
TTITLE9=あの夏を忘れない
TTITLE10=WE LOVE THE EARTH
TTITLE11=LOVE TRAIN
EXTD=YEAR: 1994
EXTT0=
EXTT1=
EXTT2=
EXTT3=
EXTT4=
EXTT5=
EXTT6=
EXTT7=
EXTT8=
EXTT9=
EXTT10=
EXTT11=
PLAYORDER=
